<svg width="440" height="304" viewBox="0 0 440 304" fill="none" xmlns="http://www.w3.org/2000/svg">
<rect x="0.221283" y="0.340935" width="439.526" height="302.803" fill="#FFADAD"/>
<rect x="18.8096" y="24.6399" width="402.35" height="250.733" fill="#FFD6A5"/>
<rect x="62.3912" y="45.7076" width="315.187" height="86.6489" fill="#CAFFBF"/>
<rect x="62.3912" y="162.343" width="315.187" height="86.6489" fill="#CAFFBF"/>
<path d="M10.5469 11.2266L14.2148 12.709V13.8574L9.42188 11.6367V10.7812L14.2148 8.56641V9.71484L10.5469 11.2266ZM18.9902 9.63281C18.8262 9.60547 18.6484 9.5918 18.457 9.5918C17.7461 9.5918 17.2637 9.89453 17.0098 10.5V15H15.9258V8.66016H16.9805L16.998 9.39258C17.3535 8.82617 17.8574 8.54297 18.5098 8.54297C18.7207 8.54297 18.8809 8.57031 18.9902 8.625V9.63281ZM23.6836 13.3184C23.6836 13.0254 23.5723 12.7988 23.3496 12.6387C23.1309 12.4746 22.7461 12.334 22.1953 12.2168C21.6484 12.0996 21.2129 11.959 20.8887 11.7949C20.5684 11.6309 20.3301 11.4355 20.1738 11.209C20.0215 10.9824 19.9453 10.7129 19.9453 10.4004C19.9453 9.88086 20.1641 9.44141 20.6016 9.08203C21.043 8.72266 21.6055 8.54297 22.2891 8.54297C23.0078 8.54297 23.5898 8.72852 24.0352 9.09961C24.4844 9.4707 24.709 9.94531 24.709 10.5234H23.6191C23.6191 10.2266 23.4922 9.9707 23.2383 9.75586C22.9883 9.54102 22.6719 9.43359 22.2891 9.43359C21.8945 9.43359 21.5859 9.51953 21.3633 9.69141C21.1406 9.86328 21.0293 10.0879 21.0293 10.3652C21.0293 10.627 21.1328 10.8242 21.3398 10.957C21.5469 11.0898 21.9199 11.2168 22.459 11.3379C23.002 11.459 23.4414 11.6035 23.7773 11.7715C24.1133 11.9395 24.3613 12.1426 24.5215 12.3809C24.6855 12.6152 24.7676 12.9023 24.7676 13.2422C24.7676 13.8086 24.541 14.2637 24.0879 14.6074C23.6348 14.9473 23.0469 15.1172 22.3242 15.1172C21.8164 15.1172 21.3672 15.0273 20.9766 14.8477C20.5859 14.668 20.2793 14.418 20.0566 14.0977C19.8379 13.7734 19.7285 13.4238 19.7285 13.0488H20.8125C20.832 13.4121 20.9766 13.7012 21.2461 13.916C21.5195 14.127 21.8789 14.2324 22.3242 14.2324C22.7344 14.2324 23.0625 14.1504 23.3086 13.9863C23.5586 13.8184 23.6836 13.5957 23.6836 13.3184ZM29.8711 13.3184C29.8711 13.0254 29.7598 12.7988 29.5371 12.6387C29.3184 12.4746 28.9336 12.334 28.3828 12.2168C27.8359 12.0996 27.4004 11.959 27.0762 11.7949C26.7559 11.6309 26.5176 11.4355 26.3613 11.209C26.209 10.9824 26.1328 10.7129 26.1328 10.4004C26.1328 9.88086 26.3516 9.44141 26.7891 9.08203C27.2305 8.72266 27.793 8.54297 28.4766 8.54297C29.1953 8.54297 29.7773 8.72852 30.2227 9.09961C30.6719 9.4707 30.8965 9.94531 30.8965 10.5234H29.8066C29.8066 10.2266 29.6797 9.9707 29.4258 9.75586C29.1758 9.54102 28.8594 9.43359 28.4766 9.43359C28.082 9.43359 27.7734 9.51953 27.5508 9.69141C27.3281 9.86328 27.2168 10.0879 27.2168 10.3652C27.2168 10.627 27.3203 10.8242 27.5273 10.957C27.7344 11.0898 28.1074 11.2168 28.6465 11.3379C29.1895 11.459 29.6289 11.6035 29.9648 11.7715C30.3008 11.9395 30.5488 12.1426 30.709 12.3809C30.873 12.6152 30.9551 12.9023 30.9551 13.2422C30.9551 13.8086 30.7285 14.2637 30.2754 14.6074C29.8223 14.9473 29.2344 15.1172 28.5117 15.1172C28.0039 15.1172 27.5547 15.0273 27.1641 14.8477C26.7734 14.668 26.4668 14.418 26.2441 14.0977C26.0254 13.7734 25.916 13.4238 25.916 13.0488H27C27.0195 13.4121 27.1641 13.7012 27.4336 13.916C27.707 14.127 28.0664 14.2324 28.5117 14.2324C28.9219 14.2324 29.25 14.1504 29.4961 13.9863C29.7461 13.8184 29.8711 13.5957 29.8711 13.3184ZM36.2051 11.1914L32.332 9.67383V8.56055L37.3359 10.7754V11.6309L32.332 13.8516V12.7266L36.2051 11.1914Z" fill="black"/>
<path d="M34.9381 35.9064L38.6061 37.3888V38.5373L33.8131 36.3166V35.4611L38.6061 33.2463V34.3947L34.9381 35.9064ZM42.86 38.9123C43.2467 38.9123 43.5846 38.7951 43.8736 38.5607C44.1627 38.3263 44.3229 38.0334 44.3541 37.6818H45.3795C45.36 38.0451 45.235 38.3908 45.0045 38.7189C44.774 39.047 44.4654 39.3088 44.0787 39.5041C43.6959 39.6994 43.2897 39.797 42.86 39.797C41.9967 39.797 41.3092 39.5099 40.7975 38.9357C40.2897 38.3576 40.0358 37.5685 40.0358 36.5685V36.3869C40.0358 35.7697 40.149 35.2209 40.3756 34.7404C40.6022 34.2599 40.9264 33.8869 41.3483 33.6213C41.774 33.3556 42.276 33.2228 42.8541 33.2228C43.565 33.2228 44.1549 33.4357 44.6236 33.8615C45.0963 34.2873 45.3483 34.84 45.3795 35.5197H44.3541C44.3229 35.1095 44.1666 34.7736 43.8854 34.5119C43.608 34.2463 43.2643 34.1134 42.8541 34.1134C42.3033 34.1134 41.8756 34.3127 41.5709 34.7111C41.2701 35.1056 41.1197 35.6779 41.1197 36.4279V36.633C41.1197 37.3634 41.2701 37.9259 41.5709 38.3205C41.8717 38.715 42.3014 38.9123 42.86 38.9123ZM47.6822 34.1076C48.1627 33.5177 48.7877 33.2228 49.5572 33.2228C50.8971 33.2228 51.5729 33.9787 51.5846 35.4904V39.6798H50.5006V35.4845C50.4967 35.0275 50.3912 34.6896 50.1842 34.4709C49.9811 34.2521 49.6627 34.1427 49.2291 34.1427C48.8775 34.1427 48.569 34.2365 48.3033 34.424C48.0377 34.6115 47.8307 34.8576 47.6822 35.1623V39.6798H46.5983V30.6798H47.6822V34.1076ZM57.1217 39.6798C57.0592 39.5548 57.0084 39.3322 56.9693 39.0119C56.4654 39.5353 55.8639 39.797 55.1647 39.797C54.5397 39.797 54.026 39.6213 53.6236 39.2697C53.2252 38.9142 53.026 38.465 53.026 37.922C53.026 37.2619 53.276 36.7502 53.776 36.3869C54.2799 36.0197 54.9869 35.8361 55.8971 35.8361H56.9518V35.3381C56.9518 34.9591 56.8385 34.6584 56.6119 34.4357C56.3854 34.2091 56.0514 34.0959 55.61 34.0959C55.2233 34.0959 54.899 34.1935 54.6373 34.3888C54.3756 34.5841 54.2447 34.8205 54.2447 35.0978H53.1549C53.1549 34.7814 53.2662 34.4767 53.4889 34.1838C53.7154 33.8869 54.0201 33.6525 54.4029 33.4806C54.7897 33.3088 55.2135 33.2228 55.6744 33.2228C56.4049 33.2228 56.9772 33.4064 57.3912 33.7736C57.8053 34.1369 58.0201 34.6388 58.0358 35.2795V38.1974C58.0358 38.7795 58.11 39.2423 58.2584 39.5861V39.6798H57.1217ZM55.3229 38.8537C55.6627 38.8537 55.985 38.7658 56.2897 38.59C56.5943 38.4142 56.815 38.1857 56.9518 37.9045V36.6037H56.1022C54.774 36.6037 54.11 36.9923 54.11 37.7697C54.11 38.1095 54.2233 38.3752 54.4498 38.5666C54.6764 38.758 54.9674 38.8537 55.3229 38.8537ZM60.7604 33.34L60.7955 34.1369C61.2799 33.5275 61.9127 33.2228 62.694 33.2228C64.0338 33.2228 64.7096 33.9787 64.7213 35.4904V39.6798H63.6373V35.4845C63.6334 35.0275 63.5279 34.6896 63.3209 34.4709C63.1178 34.2521 62.7994 34.1427 62.3658 34.1427C62.0143 34.1427 61.7057 34.2365 61.44 34.424C61.1744 34.6115 60.9674 34.8576 60.819 35.1623V39.6798H59.735V33.34H60.7604ZM67.3815 33.34L67.4166 34.1369C67.901 33.5275 68.5338 33.2228 69.315 33.2228C70.6549 33.2228 71.3307 33.9787 71.3424 35.4904V39.6798H70.2584V35.4845C70.2545 35.0275 70.149 34.6896 69.942 34.4709C69.7389 34.2521 69.4205 34.1427 68.9869 34.1427C68.6354 34.1427 68.3268 34.2365 68.0611 34.424C67.7955 34.6115 67.5885 34.8576 67.44 35.1623V39.6798H66.3561V33.34H67.3815ZM75.608 39.797C74.7486 39.797 74.0494 39.5158 73.5104 38.9533C72.9713 38.3869 72.7018 37.631 72.7018 36.6857V36.4865C72.7018 35.8576 72.8209 35.297 73.0592 34.8048C73.3014 34.3088 73.6373 33.922 74.067 33.6447C74.5006 33.3634 74.9693 33.2228 75.4733 33.2228C76.2975 33.2228 76.9381 33.4943 77.3951 34.0373C77.8522 34.5802 78.0807 35.3576 78.0807 36.3693V36.8205H73.7858C73.8014 37.4455 73.983 37.9513 74.3307 38.3381C74.6822 38.7209 75.1275 38.9123 75.6666 38.9123C76.0494 38.9123 76.3736 38.8341 76.6393 38.6779C76.9049 38.5216 77.1373 38.3146 77.3365 38.0568L77.9986 38.5724C77.4674 39.3888 76.6705 39.797 75.608 39.797ZM75.4733 34.1134C75.0358 34.1134 74.6686 34.2736 74.3717 34.5939C74.0748 34.9103 73.8912 35.3556 73.8209 35.9298H76.9967V35.8478C76.9654 35.297 76.817 34.8713 76.5514 34.5705C76.2858 34.2658 75.9264 34.1134 75.4733 34.1134ZM80.5182 39.6798H79.4342V30.6798H80.5182V39.6798ZM86.0963 35.8713L82.2233 34.3537V33.2404L87.2272 35.4552V36.3107L82.2233 38.5314V37.4064L86.0963 35.8713Z" fill="black"/>
<path d="M73.8816 61.1052L77.5496 62.5876V63.736L72.7566 61.5153V60.6599L77.5496 58.445V59.5935L73.8816 61.1052ZM80.4383 64.8786H79.3543V58.5388H80.4383V64.8786ZM79.2664 56.8571C79.2664 56.6813 79.3191 56.5329 79.4246 56.4118C79.534 56.2907 79.6941 56.2302 79.9051 56.2302C80.116 56.2302 80.2762 56.2907 80.3855 56.4118C80.4949 56.5329 80.5496 56.6813 80.5496 56.8571C80.5496 57.0329 80.4949 57.1794 80.3855 57.2966C80.2762 57.4138 80.116 57.4724 79.9051 57.4724C79.6941 57.4724 79.534 57.4138 79.4246 57.2966C79.3191 57.1794 79.2664 57.0329 79.2664 56.8571ZM83.6492 57.0036V58.5388H84.8328V59.3767H83.6492V63.3083C83.6492 63.5622 83.702 63.7536 83.8074 63.8825C83.9129 64.0075 84.0926 64.07 84.3465 64.07C84.4715 64.07 84.6434 64.0466 84.8621 63.9997V64.8786C84.577 64.9567 84.2996 64.9958 84.0301 64.9958C83.5457 64.9958 83.1805 64.8493 82.9344 64.5563C82.6883 64.2634 82.5652 63.8474 82.5652 63.3083V59.3767H81.4109V58.5388H82.5652V57.0036H83.6492ZM88.7352 64.9958C87.8758 64.9958 87.1766 64.7145 86.6375 64.152C86.0984 63.5856 85.8289 62.8298 85.8289 61.8845V61.6852C85.8289 61.0563 85.948 60.4958 86.1863 60.0036C86.4285 59.5075 86.7645 59.1208 87.1941 58.8435C87.6277 58.5622 88.0965 58.4216 88.6004 58.4216C89.4246 58.4216 90.0652 58.6931 90.5223 59.236C90.9793 59.779 91.2078 60.5563 91.2078 61.5681V62.0192H86.9129C86.9285 62.6442 87.1102 63.1501 87.4578 63.5368C87.8094 63.9196 88.2547 64.111 88.7937 64.111C89.1766 64.111 89.5008 64.0329 89.7664 63.8767C90.032 63.7204 90.2645 63.5134 90.4637 63.2556L91.1258 63.7712C90.5945 64.5876 89.7977 64.9958 88.7352 64.9958ZM88.6004 59.3122C88.1629 59.3122 87.7957 59.4724 87.4988 59.7927C87.202 60.1091 87.0184 60.5544 86.948 61.1286H90.1238V61.0466C90.0926 60.4958 89.9441 60.07 89.6785 59.7692C89.4129 59.4645 89.0535 59.3122 88.6004 59.3122ZM93.4871 58.5388L93.5164 59.2419C93.9812 58.695 94.6082 58.4216 95.3973 58.4216C96.284 58.4216 96.8875 58.7614 97.2078 59.4411C97.4187 59.1364 97.6922 58.8903 98.0281 58.7028C98.368 58.5153 98.7684 58.4216 99.2293 58.4216C100.62 58.4216 101.327 59.1579 101.35 60.6306V64.8786H100.266V60.695C100.266 60.2419 100.163 59.904 99.9559 59.6813C99.7488 59.4548 99.4012 59.3415 98.9129 59.3415C98.5105 59.3415 98.1766 59.4626 97.9109 59.7048C97.6453 59.9431 97.491 60.2653 97.448 60.6716V64.8786H96.3582V60.7243C96.3582 59.8024 95.907 59.3415 95.0047 59.3415C94.2937 59.3415 93.8074 59.6442 93.5457 60.2497V64.8786H92.4617V58.5388H93.4871ZM106.829 61.07L102.956 59.5524V58.4392L107.96 60.654V61.5095L102.956 63.7302V62.6052L106.829 61.07Z" fill="black"/>
<path d="M73.8816 175.072L77.5496 176.555V177.703L72.7566 175.482V174.627L77.5496 172.412V173.561L73.8816 175.072ZM80.4383 178.846H79.3543V172.506H80.4383V178.846ZM79.2664 170.824C79.2664 170.648 79.3191 170.5 79.4246 170.379C79.534 170.258 79.6941 170.197 79.9051 170.197C80.116 170.197 80.2762 170.258 80.3855 170.379C80.4949 170.5 80.5496 170.648 80.5496 170.824C80.5496 171 80.4949 171.147 80.3855 171.264C80.2762 171.381 80.116 171.44 79.9051 171.44C79.6941 171.44 79.534 171.381 79.4246 171.264C79.3191 171.147 79.2664 171 79.2664 170.824ZM83.6492 170.971V172.506H84.8328V173.344H83.6492V177.275C83.6492 177.529 83.702 177.721 83.8074 177.85C83.9129 177.975 84.0926 178.037 84.3465 178.037C84.4715 178.037 84.6434 178.014 84.8621 177.967V178.846C84.577 178.924 84.2996 178.963 84.0301 178.963C83.5457 178.963 83.1805 178.816 82.9344 178.523C82.6883 178.231 82.5652 177.815 82.5652 177.275V173.344H81.4109V172.506H82.5652V170.971H83.6492ZM88.7352 178.963C87.8758 178.963 87.1766 178.682 86.6375 178.119C86.0984 177.553 85.8289 176.797 85.8289 175.852V175.652C85.8289 175.023 85.948 174.463 86.1863 173.971C86.4285 173.475 86.7645 173.088 87.1941 172.811C87.6277 172.529 88.0965 172.389 88.6004 172.389C89.4246 172.389 90.0652 172.66 90.5223 173.203C90.9793 173.746 91.2078 174.523 91.2078 175.535V175.986H86.9129C86.9285 176.611 87.1102 177.117 87.4578 177.504C87.8094 177.887 88.2547 178.078 88.7937 178.078C89.1766 178.078 89.5008 178 89.7664 177.844C90.032 177.688 90.2645 177.481 90.4637 177.223L91.1258 177.738C90.5945 178.555 89.7977 178.963 88.7352 178.963ZM88.6004 173.279C88.1629 173.279 87.7957 173.44 87.4988 173.76C87.202 174.076 87.0184 174.522 86.948 175.096H90.1238V175.014C90.0926 174.463 89.9441 174.037 89.6785 173.736C89.4129 173.432 89.0535 173.279 88.6004 173.279ZM93.4871 172.506L93.5164 173.209C93.9812 172.662 94.6082 172.389 95.3973 172.389C96.284 172.389 96.8875 172.729 97.2078 173.408C97.4187 173.104 97.6922 172.857 98.0281 172.67C98.368 172.482 98.7684 172.389 99.2293 172.389C100.62 172.389 101.327 173.125 101.35 174.598V178.846H100.266V174.662C100.266 174.209 100.163 173.871 99.9559 173.648C99.7488 173.422 99.4012 173.309 98.9129 173.309C98.5105 173.309 98.1766 173.43 97.9109 173.672C97.6453 173.91 97.491 174.232 97.448 174.639V178.846H96.3582V174.691C96.3582 173.77 95.907 173.309 95.0047 173.309C94.2937 173.309 93.8074 173.611 93.5457 174.217V178.846H92.4617V172.506H93.4871ZM106.829 175.037L102.956 173.52V172.406L107.96 174.621V175.477L102.956 177.697V176.572L106.829 175.037Z" fill="black"/>
<path d="M73.8816 118.089L77.5496 119.571V120.72L72.7566 118.499V117.643L77.5496 115.429V116.577L73.8816 118.089ZM79.4773 122.595H78.5457L82.1082 113.331H83.034L79.4773 122.595ZM85.3836 121.862H84.2996V115.522H85.3836V121.862ZM84.2117 113.841C84.2117 113.665 84.2645 113.516 84.3699 113.395C84.4793 113.274 84.6395 113.214 84.8504 113.214C85.0613 113.214 85.2215 113.274 85.3309 113.395C85.4402 113.516 85.4949 113.665 85.4949 113.841C85.4949 114.016 85.4402 114.163 85.3309 114.28C85.2215 114.397 85.0613 114.456 84.8504 114.456C84.6395 114.456 84.4793 114.397 84.3699 114.28C84.2645 114.163 84.2117 114.016 84.2117 113.841ZM88.5945 113.987V115.522H89.7781V116.36H88.5945V120.292C88.5945 120.546 88.6473 120.737 88.7527 120.866C88.8582 120.991 89.0379 121.054 89.2918 121.054C89.4168 121.054 89.5887 121.03 89.8074 120.983V121.862C89.5223 121.94 89.2449 121.979 88.9754 121.979C88.491 121.979 88.1258 121.833 87.8797 121.54C87.6336 121.247 87.5105 120.831 87.5105 120.292V116.36H86.3562V115.522H87.5105V113.987H88.5945ZM93.6805 121.979C92.8211 121.979 92.1219 121.698 91.5828 121.136C91.0437 120.569 90.7742 119.813 90.7742 118.868V118.669C90.7742 118.04 90.8934 117.479 91.1316 116.987C91.3738 116.491 91.7098 116.104 92.1395 115.827C92.573 115.546 93.0418 115.405 93.5457 115.405C94.3699 115.405 95.0105 115.677 95.4676 116.22C95.9246 116.763 96.1531 117.54 96.1531 118.552V119.003H91.8582C91.8738 119.628 92.0555 120.134 92.4031 120.52C92.7547 120.903 93.2 121.095 93.7391 121.095C94.1219 121.095 94.4461 121.016 94.7117 120.86C94.9773 120.704 95.2098 120.497 95.409 120.239L96.0711 120.755C95.5398 121.571 94.743 121.979 93.6805 121.979ZM93.5457 116.296C93.1082 116.296 92.741 116.456 92.4441 116.776C92.1473 117.093 91.9637 117.538 91.8934 118.112H95.0691V118.03C95.0379 117.479 94.8895 117.054 94.6238 116.753C94.3582 116.448 93.9988 116.296 93.5457 116.296ZM98.4324 115.522L98.4617 116.225C98.9266 115.679 99.5535 115.405 100.343 115.405C101.229 115.405 101.833 115.745 102.153 116.425C102.364 116.12 102.637 115.874 102.973 115.686C103.313 115.499 103.714 115.405 104.175 115.405C105.565 115.405 106.272 116.141 106.296 117.614V121.862H105.212V117.679C105.212 117.225 105.108 116.888 104.901 116.665C104.694 116.438 104.346 116.325 103.858 116.325C103.456 116.325 103.122 116.446 102.856 116.688C102.591 116.927 102.436 117.249 102.393 117.655V121.862H101.304V117.708C101.304 116.786 100.852 116.325 99.95 116.325C99.2391 116.325 98.7527 116.628 98.491 117.233V121.862H97.407V115.522H98.4324ZM111.774 118.054L107.901 116.536V115.423L112.905 117.638V118.493L107.901 120.714V119.589L111.774 118.054Z" fill="black"/>
<path d="M73.8816 238.928L77.5496 240.411V241.559L72.7566 239.338V238.483L77.5496 236.268V237.417L73.8816 238.928ZM79.4773 243.434H78.5457L82.1082 234.17H83.034L79.4773 243.434ZM85.3836 242.702H84.2996V236.362H85.3836V242.702ZM84.2117 234.68C84.2117 234.504 84.2645 234.356 84.3699 234.235C84.4793 234.114 84.6395 234.053 84.8504 234.053C85.0613 234.053 85.2215 234.114 85.3309 234.235C85.4402 234.356 85.4949 234.504 85.4949 234.68C85.4949 234.856 85.4402 235.002 85.3309 235.12C85.2215 235.237 85.0613 235.295 84.8504 235.295C84.6395 235.295 84.4793 235.237 84.3699 235.12C84.2645 235.002 84.2117 234.856 84.2117 234.68ZM88.5945 234.827V236.362H89.7781V237.2H88.5945V241.131C88.5945 241.385 88.6473 241.577 88.7527 241.706C88.8582 241.831 89.0379 241.893 89.2918 241.893C89.4168 241.893 89.5887 241.87 89.8074 241.823V242.702C89.5223 242.78 89.2449 242.819 88.9754 242.819C88.491 242.819 88.1258 242.672 87.8797 242.379C87.6336 242.086 87.5105 241.67 87.5105 241.131V237.2H86.3562V236.362H87.5105V234.827H88.5945ZM93.6805 242.819C92.8211 242.819 92.1219 242.538 91.5828 241.975C91.0437 241.409 90.7742 240.653 90.7742 239.708V239.508C90.7742 238.879 90.8934 238.319 91.1316 237.827C91.3738 237.331 91.7098 236.944 92.1395 236.667C92.573 236.385 93.0418 236.245 93.5457 236.245C94.3699 236.245 95.0105 236.516 95.4676 237.059C95.9246 237.602 96.1531 238.379 96.1531 239.391V239.842H91.8582C91.8738 240.467 92.0555 240.973 92.4031 241.36C92.7547 241.743 93.2 241.934 93.7391 241.934C94.1219 241.934 94.4461 241.856 94.7117 241.7C94.9773 241.544 95.2098 241.336 95.409 241.079L96.0711 241.594C95.5398 242.411 94.743 242.819 93.6805 242.819ZM93.5457 237.135C93.1082 237.135 92.741 237.295 92.4441 237.616C92.1473 237.932 91.9637 238.377 91.8934 238.952H95.0691V238.87C95.0379 238.319 94.8895 237.893 94.6238 237.592C94.3582 237.288 93.9988 237.135 93.5457 237.135ZM98.4324 236.362L98.4617 237.065C98.9266 236.518 99.5535 236.245 100.343 236.245C101.229 236.245 101.833 236.585 102.153 237.264C102.364 236.96 102.637 236.713 102.973 236.526C103.313 236.338 103.714 236.245 104.175 236.245C105.565 236.245 106.272 236.981 106.296 238.454V242.702H105.212V238.518C105.212 238.065 105.108 237.727 104.901 237.504C104.694 237.278 104.346 237.165 103.858 237.165C103.456 237.165 103.122 237.286 102.856 237.528C102.591 237.766 102.436 238.088 102.393 238.495V242.702H101.304V238.547C101.304 237.626 100.852 237.165 99.95 237.165C99.2391 237.165 98.7527 237.467 98.491 238.073V242.702H97.407V236.362H98.4324ZM111.774 238.893L107.901 237.376V236.262L112.905 238.477V239.333L107.901 241.553V240.428L111.774 238.893Z" fill="black"/>
<path d="M34.9381 261.729L38.6061 263.211V264.36L33.8131 262.139V261.284L38.6061 259.069V260.217L34.9381 261.729ZM40.5338 266.235H39.6022L43.1647 256.971H44.0904L40.5338 266.235ZM47.8053 264.735C48.192 264.735 48.5299 264.618 48.819 264.383C49.108 264.149 49.2682 263.856 49.2994 263.504H50.3248C50.3053 263.868 50.1803 264.213 49.9498 264.542C49.7193 264.87 49.4108 265.131 49.024 265.327C48.6412 265.522 48.235 265.62 47.8053 265.62C46.942 265.62 46.2545 265.333 45.7428 264.758C45.235 264.18 44.9811 263.391 44.9811 262.391V262.21C44.9811 261.592 45.0943 261.044 45.3209 260.563C45.5475 260.083 45.8717 259.71 46.2936 259.444C46.7193 259.178 47.2213 259.045 47.7994 259.045C48.5104 259.045 49.1002 259.258 49.569 259.684C50.0416 260.11 50.2936 260.663 50.3248 261.342H49.2994C49.2682 260.932 49.1119 260.596 48.8307 260.335C48.5533 260.069 48.2096 259.936 47.7994 259.936C47.2486 259.936 46.8209 260.135 46.5162 260.534C46.2154 260.928 46.065 261.501 46.065 262.251V262.456C46.065 263.186 46.2154 263.749 46.5162 264.143C46.817 264.538 47.2467 264.735 47.8053 264.735ZM52.6275 259.93C53.108 259.34 53.733 259.045 54.5025 259.045C55.8424 259.045 56.5182 259.801 56.5299 261.313V265.503H55.4459V261.307C55.442 260.85 55.3365 260.512 55.1295 260.294C54.9264 260.075 54.608 259.965 54.1744 259.965C53.8229 259.965 53.5143 260.059 53.2486 260.247C52.983 260.434 52.776 260.68 52.6275 260.985V265.503H51.5436V256.503H52.6275V259.93ZM62.067 265.503C62.0045 265.378 61.9537 265.155 61.9147 264.835C61.4108 265.358 60.8092 265.62 60.11 265.62C59.485 265.62 58.9713 265.444 58.569 265.092C58.1705 264.737 57.9713 264.288 57.9713 263.745C57.9713 263.085 58.2213 262.573 58.7213 262.21C59.2252 261.842 59.9322 261.659 60.8424 261.659H61.8971V261.161C61.8971 260.782 61.7838 260.481 61.5572 260.258C61.3307 260.032 60.9967 259.919 60.5553 259.919C60.1686 259.919 59.8443 260.016 59.5826 260.211C59.3209 260.407 59.19 260.643 59.19 260.92H58.1002C58.1002 260.604 58.2115 260.299 58.4342 260.006C58.6608 259.71 58.9654 259.475 59.3483 259.303C59.735 259.131 60.1588 259.045 60.6197 259.045C61.3502 259.045 61.9225 259.229 62.3365 259.596C62.7506 259.96 62.9654 260.461 62.9811 261.102V264.02C62.9811 264.602 63.0553 265.065 63.2037 265.409V265.503H62.067ZM60.2682 264.676C60.608 264.676 60.9303 264.588 61.235 264.413C61.5397 264.237 61.7604 264.008 61.8971 263.727V262.426H61.0475C59.7193 262.426 59.0553 262.815 59.0553 263.592C59.0553 263.932 59.1686 264.198 59.3951 264.389C59.6217 264.581 59.9127 264.676 60.2682 264.676ZM65.7057 259.163L65.7408 259.96C66.2252 259.35 66.858 259.045 67.6393 259.045C68.9791 259.045 69.6549 259.801 69.6666 261.313V265.503H68.5826V261.307C68.5787 260.85 68.4733 260.512 68.2662 260.294C68.0631 260.075 67.7447 259.965 67.3111 259.965C66.9596 259.965 66.651 260.059 66.3854 260.247C66.1197 260.434 65.9127 260.68 65.7643 260.985V265.503H64.6803V259.163H65.7057ZM72.3268 259.163L72.3619 259.96C72.8463 259.35 73.4791 259.045 74.2604 259.045C75.6002 259.045 76.276 259.801 76.2877 261.313V265.503H75.2037V261.307C75.1998 260.85 75.0943 260.512 74.8873 260.294C74.6842 260.075 74.3658 259.965 73.9322 259.965C73.5807 259.965 73.2721 260.059 73.0065 260.247C72.7408 260.434 72.5338 260.68 72.3854 260.985V265.503H71.3014V259.163H72.3268ZM80.5533 265.62C79.694 265.62 78.9947 265.338 78.4557 264.776C77.9166 264.21 77.6471 263.454 77.6471 262.508V262.309C77.6471 261.68 77.7662 261.12 78.0045 260.628C78.2467 260.131 78.5826 259.745 79.0123 259.467C79.4459 259.186 79.9147 259.045 80.4186 259.045C81.2428 259.045 81.8834 259.317 82.3404 259.86C82.7975 260.403 83.026 261.18 83.026 262.192V262.643H78.7311C78.7467 263.268 78.9283 263.774 79.276 264.161C79.6275 264.544 80.0729 264.735 80.6119 264.735C80.9947 264.735 81.319 264.657 81.5846 264.501C81.8502 264.344 82.0826 264.137 82.2818 263.879L82.944 264.395C82.4127 265.211 81.6158 265.62 80.5533 265.62ZM80.4186 259.936C79.9811 259.936 79.6139 260.096 79.317 260.417C79.0201 260.733 78.8365 261.178 78.7662 261.753H81.942V261.67C81.9108 261.12 81.7623 260.694 81.4967 260.393C81.2311 260.088 80.8717 259.936 80.4186 259.936ZM85.4635 265.503H84.3795V256.503H85.4635V265.503ZM91.0416 261.694L87.1686 260.176V259.063L92.1725 261.278V262.133L87.1686 264.354V263.229L91.0416 261.694Z" fill="black"/>
<path d="M10.5469 289.24L14.2148 290.722V291.871L9.42188 289.65V288.795L14.2148 286.58V287.728L10.5469 289.24ZM16.1426 293.746H15.2109L18.7734 284.482H19.6992L16.1426 293.746ZM23.9355 287.646C23.7715 287.619 23.5938 287.605 23.4023 287.605C22.6914 287.605 22.209 287.908 21.9551 288.513V293.013H20.8711V286.674H21.9258L21.9434 287.406C22.2988 286.84 22.8027 286.556 23.4551 286.556C23.666 286.556 23.8262 286.584 23.9355 286.638V287.646ZM28.6289 291.332C28.6289 291.039 28.5176 290.812 28.2949 290.652C28.0762 290.488 27.6914 290.347 27.1406 290.23C26.5938 290.113 26.1582 289.972 25.834 289.808C25.5137 289.644 25.2754 289.449 25.1191 289.222C24.9668 288.996 24.8906 288.726 24.8906 288.414C24.8906 287.894 25.1094 287.455 25.5469 287.095C25.9883 286.736 26.5508 286.556 27.2344 286.556C27.9531 286.556 28.5352 286.742 28.9805 287.113C29.4297 287.484 29.6543 287.959 29.6543 288.537H28.5645C28.5645 288.24 28.4375 287.984 28.1836 287.769C27.9336 287.554 27.6172 287.447 27.2344 287.447C26.8398 287.447 26.5312 287.533 26.3086 287.705C26.0859 287.877 25.9746 288.101 25.9746 288.379C25.9746 288.64 26.0781 288.838 26.2852 288.97C26.4922 289.103 26.8652 289.23 27.4043 289.351C27.9473 289.472 28.3867 289.617 28.7227 289.785C29.0586 289.953 29.3066 290.156 29.4668 290.394C29.6309 290.629 29.7129 290.916 29.7129 291.256C29.7129 291.822 29.4863 292.277 29.0332 292.621C28.5801 292.961 27.9922 293.131 27.2695 293.131C26.7617 293.131 26.3125 293.041 25.9219 292.861C25.5312 292.681 25.2246 292.431 25.002 292.111C24.7832 291.787 24.6738 291.437 24.6738 291.062H25.7578C25.7773 291.425 25.9219 291.715 26.1914 291.929C26.4648 292.14 26.8242 292.246 27.2695 292.246C27.6797 292.246 28.0078 292.164 28.2539 292C28.5039 291.832 28.6289 291.609 28.6289 291.332ZM34.8164 291.332C34.8164 291.039 34.7051 290.812 34.4824 290.652C34.2637 290.488 33.8789 290.347 33.3281 290.23C32.7812 290.113 32.3457 289.972 32.0215 289.808C31.7012 289.644 31.4629 289.449 31.3066 289.222C31.1543 288.996 31.0781 288.726 31.0781 288.414C31.0781 287.894 31.2969 287.455 31.7344 287.095C32.1758 286.736 32.7383 286.556 33.4219 286.556C34.1406 286.556 34.7227 286.742 35.168 287.113C35.6172 287.484 35.8418 287.959 35.8418 288.537H34.752C34.752 288.24 34.625 287.984 34.3711 287.769C34.1211 287.554 33.8047 287.447 33.4219 287.447C33.0273 287.447 32.7188 287.533 32.4961 287.705C32.2734 287.877 32.1621 288.101 32.1621 288.379C32.1621 288.64 32.2656 288.838 32.4727 288.97C32.6797 289.103 33.0527 289.23 33.5918 289.351C34.1348 289.472 34.5742 289.617 34.9102 289.785C35.2461 289.953 35.4941 290.156 35.6543 290.394C35.8184 290.629 35.9004 290.916 35.9004 291.256C35.9004 291.822 35.6738 292.277 35.2207 292.621C34.7676 292.961 34.1797 293.131 33.457 293.131C32.9492 293.131 32.5 293.041 32.1094 292.861C31.7188 292.681 31.4121 292.431 31.1895 292.111C30.9707 291.787 30.8613 291.437 30.8613 291.062H31.9453C31.9648 291.425 32.1094 291.715 32.3789 291.929C32.6523 292.14 33.0117 292.246 33.457 292.246C33.8672 292.246 34.1953 292.164 34.4414 292C34.6914 291.832 34.8164 291.609 34.8164 291.332ZM41.1504 289.205L37.2773 287.687V286.574L42.2812 288.789V289.644L37.2773 291.865V290.74L41.1504 289.205Z" fill="black"/>
<path d="M128.838 85.116V86.6922H129.881V88.0632H128.838V90.9636C128.838 91.2019 128.881 91.3679 128.967 91.4617C129.053 91.5554 129.223 91.6023 129.477 91.6023C129.672 91.6023 129.836 91.5906 129.969 91.5672V92.9793C129.613 93.0925 129.242 93.1492 128.856 93.1492C128.176 93.1492 127.674 92.989 127.35 92.6687C127.025 92.3484 126.863 91.8621 126.863 91.2097V88.0632H126.055V86.6922H126.863V85.116H128.838ZM132.746 93.032H130.766V86.6922H132.746V93.032ZM130.649 85.0574C130.649 84.7761 130.75 84.5457 130.953 84.366C131.156 84.1863 131.42 84.0965 131.744 84.0965C132.068 84.0965 132.332 84.1863 132.535 84.366C132.738 84.5457 132.84 84.7761 132.84 85.0574C132.84 85.3386 132.738 85.5691 132.535 85.7488C132.332 85.9285 132.068 86.0183 131.744 86.0183C131.42 86.0183 131.156 85.9285 130.953 85.7488C130.75 85.5691 130.649 85.3386 130.649 85.0574ZM136.268 85.116V86.6922H137.311V88.0632H136.268V90.9636C136.268 91.2019 136.311 91.3679 136.397 91.4617C136.483 91.5554 136.652 91.6023 136.906 91.6023C137.102 91.6023 137.266 91.5906 137.399 91.5672V92.9793C137.043 93.0925 136.672 93.1492 136.285 93.1492C135.606 93.1492 135.104 92.989 134.779 92.6687C134.455 92.3484 134.293 91.8621 134.293 91.2097V88.0632H133.484V86.6922H134.293V85.116H136.268ZM140.176 93.032H138.195V84.032H140.176V93.032ZM144.465 93.1492C143.492 93.1492 142.705 92.8601 142.104 92.282C141.502 91.7 141.201 90.9441 141.201 90.0144V89.8504C141.201 89.2019 141.32 88.6297 141.559 88.1336C141.801 87.6375 142.152 87.2547 142.613 86.9851C143.074 86.7117 143.621 86.575 144.254 86.575C145.145 86.575 145.848 86.8523 146.363 87.407C146.879 87.9578 147.137 88.7273 147.137 89.7156V90.4832H143.211C143.281 90.8386 143.436 91.1179 143.674 91.3211C143.912 91.5242 144.221 91.6257 144.6 91.6257C145.225 91.6257 145.713 91.407 146.065 90.9695L146.967 92.0359C146.721 92.3757 146.371 92.6472 145.918 92.8504C145.469 93.0496 144.984 93.1492 144.465 93.1492ZM144.242 88.0984C143.664 88.0984 143.32 88.4812 143.211 89.2468H145.203V89.0945C145.211 88.7781 145.131 88.534 144.963 88.3621C144.795 88.1863 144.555 88.0984 144.242 88.0984ZM148.631 95.3289L147.635 94.8601L147.834 94.4617C148.108 93.9539 148.25 93.4695 148.262 93.0086V91.5437H149.844L149.838 92.8152C149.834 93.2644 149.719 93.7215 149.492 94.1863C149.266 94.6511 148.979 95.032 148.631 95.3289ZM156.242 93.032H154.262V84.032H156.242V93.032ZM159.547 93.032H157.567V86.6922H159.547V93.032ZM157.449 85.0574C157.449 84.7761 157.551 84.5457 157.754 84.366C157.957 84.1863 158.221 84.0965 158.545 84.0965C158.869 84.0965 159.133 84.1863 159.336 84.366C159.539 84.5457 159.641 84.7761 159.641 85.0574C159.641 85.3386 159.539 85.5691 159.336 85.7488C159.133 85.9285 158.869 86.0183 158.545 86.0183C158.221 86.0183 157.957 85.9285 157.754 85.7488C157.551 85.5691 157.449 85.3386 157.449 85.0574ZM162.582 86.6922L162.647 87.4363C163.084 86.8621 163.688 86.575 164.457 86.575C165.117 86.575 165.609 86.7722 165.934 87.1668C166.262 87.5613 166.432 88.155 166.443 88.948V93.032H164.463V89.03C164.463 88.7097 164.399 88.4754 164.27 88.3269C164.141 88.1746 163.906 88.0984 163.567 88.0984C163.18 88.0984 162.893 88.2507 162.705 88.5554V93.032H160.731V86.6922H162.582ZM170.088 90.6707L169.531 91.2273V93.032H167.557V84.0261H169.531V88.8074L169.731 88.5437L171.219 86.6922H173.586L171.365 89.2996L173.733 93.032H171.471L170.088 90.6707ZM174.799 95.3289L173.803 94.8601L174.002 94.4617C174.275 93.9539 174.418 93.4695 174.43 93.0086V91.5437H176.012L176.006 92.8152C176.002 93.2644 175.887 93.7215 175.66 94.1863C175.434 94.6511 175.147 95.032 174.799 95.3289ZM180.096 89.8152C180.096 89.1746 180.201 88.6082 180.412 88.116C180.623 87.6238 180.926 87.2449 181.32 86.9793C181.715 86.7097 182.174 86.575 182.697 86.575C183.358 86.575 183.873 86.7976 184.244 87.2429L184.315 86.6922H186.108V92.7918C186.108 93.3504 185.977 93.8347 185.715 94.2449C185.457 94.659 185.082 94.9754 184.59 95.1941C184.098 95.4168 183.527 95.5281 182.879 95.5281C182.414 95.5281 181.963 95.4402 181.525 95.2644C181.092 95.0886 180.76 94.8601 180.529 94.5789L181.356 93.4187C181.723 93.8523 182.207 94.0691 182.809 94.0691C183.684 94.0691 184.121 93.6199 184.121 92.7215V92.5222C183.742 92.9402 183.264 93.1492 182.686 93.1492C181.912 93.1492 181.287 92.8543 180.811 92.2644C180.334 91.6707 180.096 90.8777 180.096 89.8855V89.8152ZM182.076 89.9382C182.076 90.4578 182.174 90.8699 182.369 91.1746C182.565 91.4754 182.838 91.6257 183.19 91.6257C183.615 91.6257 183.926 91.4832 184.121 91.198V88.532C183.93 88.2429 183.623 88.0984 183.201 88.0984C182.85 88.0984 182.574 88.2566 182.375 88.573C182.176 88.8855 182.076 89.3406 182.076 89.9382ZM191.006 92.3465C190.588 92.8816 190.024 93.1492 189.313 93.1492C188.617 93.1492 188.09 92.948 187.731 92.5457C187.375 92.1394 187.197 91.5574 187.197 90.7996V86.6922H189.172V90.8113C189.172 91.3543 189.436 91.6257 189.963 91.6257C190.416 91.6257 190.738 91.4636 190.93 91.1394V86.6922H192.916V93.032H191.065L191.006 92.3465ZM196.086 93.032H194.106V86.6922H196.086V93.032ZM193.988 85.0574C193.988 84.7761 194.09 84.5457 194.293 84.366C194.496 84.1863 194.76 84.0965 195.084 84.0965C195.408 84.0965 195.672 84.1863 195.875 84.366C196.078 84.5457 196.18 84.7761 196.18 85.0574C196.18 85.3386 196.078 85.5691 195.875 85.7488C195.672 85.9285 195.408 86.0183 195.084 86.0183C194.76 86.0183 194.496 85.9285 194.293 85.7488C194.09 85.5691 193.988 85.3386 193.988 85.0574ZM197.059 89.8152C197.059 88.8113 197.275 88.0203 197.709 87.4422C198.143 86.864 198.748 86.575 199.525 86.575C200.092 86.575 200.568 86.7976 200.955 87.2429V84.032H202.936V93.032H201.16L201.061 92.3523C200.654 92.8836 200.139 93.1492 199.514 93.1492C198.76 93.1492 198.162 92.8601 197.721 92.282C197.279 91.7039 197.059 90.8816 197.059 89.8152ZM199.033 89.9382C199.033 91.0632 199.361 91.6257 200.018 91.6257C200.455 91.6257 200.768 91.4422 200.955 91.075V88.6609C200.775 88.2859 200.467 88.0984 200.029 88.0984C199.42 88.0984 199.09 88.5906 199.039 89.575L199.033 89.9382ZM204.752 95.3289L203.756 94.8601L203.955 94.4617C204.229 93.9539 204.371 93.4695 204.383 93.0086V91.5437H205.965L205.959 92.8152C205.955 93.2644 205.84 93.7215 205.613 94.1863C205.387 94.6511 205.1 95.032 204.752 95.3289ZM210.031 89.8152C210.031 88.8113 210.248 88.0203 210.682 87.4422C211.115 86.864 211.721 86.575 212.498 86.575C213.065 86.575 213.541 86.7976 213.928 87.2429V84.032H215.908V93.032H214.133L214.033 92.3523C213.627 92.8836 213.111 93.1492 212.486 93.1492C211.733 93.1492 211.135 92.8601 210.693 92.282C210.252 91.7039 210.031 90.8816 210.031 89.8152ZM212.006 89.9382C212.006 91.0632 212.334 91.6257 212.99 91.6257C213.428 91.6257 213.74 91.4422 213.928 91.075V88.6609C213.748 88.2859 213.44 88.0984 213.002 88.0984C212.393 88.0984 212.063 88.5906 212.012 89.575L212.006 89.9382ZM220.098 93.1492C219.125 93.1492 218.338 92.8601 217.736 92.282C217.135 91.7 216.834 90.9441 216.834 90.0144V89.8504C216.834 89.2019 216.953 88.6297 217.192 88.1336C217.434 87.6375 217.785 87.2547 218.246 86.9851C218.707 86.7117 219.254 86.575 219.887 86.575C220.777 86.575 221.481 86.8523 221.996 87.407C222.512 87.9578 222.77 88.7273 222.77 89.7156V90.4832H218.844C218.914 90.8386 219.068 91.1179 219.307 91.3211C219.545 91.5242 219.854 91.6257 220.233 91.6257C220.858 91.6257 221.346 91.407 221.697 90.9695L222.6 92.0359C222.354 92.3757 222.004 92.6472 221.551 92.8504C221.102 93.0496 220.617 93.1492 220.098 93.1492ZM219.875 88.0984C219.297 88.0984 218.953 88.4812 218.844 89.2468H220.836V89.0945C220.844 88.7781 220.764 88.534 220.596 88.3621C220.428 88.1863 220.188 88.0984 219.875 88.0984ZM226.889 91.2507C226.889 91.0828 226.801 90.948 226.625 90.8465C226.449 90.7449 226.115 90.6394 225.623 90.53C225.131 90.4207 224.725 90.2781 224.404 90.1023C224.084 89.9226 223.84 89.7058 223.672 89.4519C223.504 89.198 223.42 88.907 223.42 88.5789C223.42 87.9968 223.66 87.5183 224.141 87.1433C224.621 86.7644 225.25 86.575 226.027 86.575C226.863 86.575 227.535 86.7644 228.043 87.1433C228.551 87.5222 228.805 88.0203 228.805 88.6375H226.824C226.824 88.1297 226.557 87.8757 226.022 87.8757C225.815 87.8757 225.641 87.9343 225.5 88.0515C225.359 88.1648 225.289 88.3074 225.289 88.4793C225.289 88.655 225.375 88.7976 225.547 88.907C225.719 89.0164 225.992 89.1062 226.367 89.1765C226.746 89.2468 227.078 89.3308 227.363 89.4285C228.317 89.7566 228.793 90.3445 228.793 91.1922C228.793 91.7703 228.535 92.241 228.02 92.6043C227.508 92.9675 226.844 93.1492 226.027 93.1492C225.484 93.1492 225 93.0515 224.574 92.8562C224.149 92.6609 223.817 92.3953 223.578 92.0593C223.34 91.7234 223.221 91.3699 223.221 90.9988H225.067C225.074 91.2918 225.172 91.5066 225.359 91.6433C225.547 91.7761 225.787 91.8425 226.08 91.8425C226.35 91.8425 226.551 91.7879 226.684 91.6785C226.82 91.5691 226.889 91.4265 226.889 91.2507ZM232.402 91.6257C232.68 91.6257 232.895 91.5515 233.047 91.4031C233.199 91.2507 233.274 91.0398 233.27 90.7703H235.121C235.121 91.4656 234.871 92.0359 234.371 92.4812C233.875 92.9265 233.234 93.1492 232.449 93.1492C231.527 93.1492 230.801 92.8601 230.27 92.282C229.738 91.7039 229.473 90.9031 229.473 89.8797V89.7976C229.473 89.157 229.59 88.5925 229.824 88.1043C230.063 87.6121 230.404 87.2351 230.85 86.9734C231.295 86.7078 231.822 86.575 232.432 86.575C233.256 86.575 233.91 86.8035 234.395 87.2605C234.879 87.7175 235.121 88.3367 235.121 89.1179H233.27C233.27 88.7898 233.19 88.5379 233.029 88.3621C232.869 88.1863 232.654 88.0984 232.385 88.0984C231.873 88.0984 231.574 88.4246 231.488 89.0769C231.461 89.284 231.447 89.5691 231.447 89.9324C231.447 90.5691 231.524 91.0105 231.676 91.2566C231.828 91.5027 232.07 91.6257 232.402 91.6257ZM239.791 88.4793L239.141 88.4324C238.52 88.4324 238.121 88.6277 237.945 89.0183V93.032H235.971V86.6922H237.822L237.887 87.5066C238.219 86.8855 238.682 86.575 239.275 86.575C239.486 86.575 239.67 86.5984 239.826 86.6453L239.791 88.4793ZM242.586 93.032H240.606V86.6922H242.586V93.032ZM240.488 85.0574C240.488 84.7761 240.59 84.5457 240.793 84.366C240.996 84.1863 241.26 84.0965 241.584 84.0965C241.908 84.0965 242.172 84.1863 242.375 84.366C242.578 84.5457 242.68 84.7761 242.68 85.0574C242.68 85.3386 242.578 85.5691 242.375 85.7488C242.172 85.9285 241.908 86.0183 241.584 86.0183C241.26 86.0183 240.996 85.9285 240.793 85.7488C240.59 85.5691 240.488 85.3386 240.488 85.0574ZM249.693 89.909C249.693 90.8933 249.471 91.6804 249.025 92.2703C248.584 92.8562 247.986 93.1492 247.233 93.1492C246.65 93.1492 246.172 92.9363 245.797 92.5105V95.4695H243.822V86.6922H245.668L245.727 87.2781C246.106 86.8093 246.604 86.575 247.221 86.575C248.002 86.575 248.609 86.864 249.043 87.4422C249.477 88.0164 249.693 88.8074 249.693 89.8152V89.909ZM247.719 89.7859C247.719 88.6609 247.391 88.0984 246.734 88.0984C246.266 88.0984 245.953 88.2664 245.797 88.6023V91.0984C245.969 91.45 246.285 91.6257 246.746 91.6257C247.375 91.6257 247.699 91.0828 247.719 89.9968V89.7859ZM252.869 85.116V86.6922H253.912V88.0632H252.869V90.9636C252.869 91.2019 252.912 91.3679 252.998 91.4617C253.084 91.5554 253.254 91.6023 253.508 91.6023C253.703 91.6023 253.867 91.5906 254 91.5672V92.9793C253.645 93.0925 253.274 93.1492 252.887 93.1492C252.207 93.1492 251.705 92.989 251.381 92.6687C251.057 92.3484 250.895 91.8621 250.895 91.2097V88.0632H250.086V86.6922H250.895V85.116H252.869ZM256.777 93.032H254.797V86.6922H256.777V93.032ZM254.68 85.0574C254.68 84.7761 254.781 84.5457 254.984 84.366C255.188 84.1863 255.451 84.0965 255.775 84.0965C256.1 84.0965 256.363 84.1863 256.567 84.366C256.77 84.5457 256.871 84.7761 256.871 85.0574C256.871 85.3386 256.77 85.5691 256.567 85.7488C256.363 85.9285 256.1 86.0183 255.775 86.0183C255.451 86.0183 255.188 85.9285 254.984 85.7488C254.781 85.5691 254.68 85.3386 254.68 85.0574ZM257.75 89.8035C257.75 89.1707 257.873 88.6082 258.119 88.116C258.365 87.6199 258.719 87.239 259.18 86.9734C259.641 86.7078 260.182 86.575 260.803 86.575C261.752 86.575 262.5 86.8699 263.047 87.4597C263.594 88.0457 263.867 88.8445 263.867 89.8562V89.9265C263.867 90.9148 263.592 91.7 263.041 92.282C262.494 92.8601 261.752 93.1492 260.815 93.1492C259.912 93.1492 259.188 92.8797 258.641 92.3406C258.094 91.7976 257.799 91.0632 257.756 90.1375L257.75 89.8035ZM259.725 89.9265C259.725 90.5125 259.817 90.9422 260 91.2156C260.184 91.489 260.455 91.6257 260.815 91.6257C261.518 91.6257 261.877 91.0847 261.893 90.0027V89.8035C261.893 88.6668 261.529 88.0984 260.803 88.0984C260.143 88.0984 259.785 88.5886 259.731 89.5691L259.725 89.9265ZM266.551 86.6922L266.615 87.4363C267.053 86.8621 267.656 86.575 268.426 86.575C269.086 86.575 269.578 86.7722 269.902 87.1668C270.231 87.5613 270.4 88.155 270.412 88.948V93.032H268.432V89.03C268.432 88.7097 268.367 88.4754 268.238 88.3269C268.109 88.1746 267.875 88.0984 267.535 88.0984C267.149 88.0984 266.861 88.2507 266.674 88.5554V93.032H264.699V86.6922H266.551ZM272.205 95.3289L271.209 94.8601L271.408 94.4617C271.682 93.9539 271.824 93.4695 271.836 93.0086V91.5437H273.418L273.412 92.8152C273.408 93.2644 273.293 93.7215 273.067 94.1863C272.84 94.6511 272.553 95.032 272.205 95.3289ZM283.619 89.909C283.619 90.8933 283.397 91.6804 282.951 92.2703C282.51 92.8562 281.912 93.1492 281.158 93.1492C280.576 93.1492 280.098 92.9363 279.723 92.5105V95.4695H277.748V86.6922H279.594L279.652 87.2781C280.031 86.8093 280.529 86.575 281.147 86.575C281.928 86.575 282.535 86.864 282.969 87.4422C283.402 88.0164 283.619 88.8074 283.619 89.8152V89.909ZM281.645 89.7859C281.645 88.6609 281.317 88.0984 280.66 88.0984C280.192 88.0984 279.879 88.2664 279.723 88.6023V91.0984C279.895 91.45 280.211 91.6257 280.672 91.6257C281.301 91.6257 281.625 91.0828 281.645 89.9968V89.7859ZM288.272 92.3465C287.854 92.8816 287.289 93.1492 286.578 93.1492C285.883 93.1492 285.356 92.948 284.996 92.5457C284.641 92.1394 284.463 91.5574 284.463 90.7996V86.6922H286.438V90.8113C286.438 91.3543 286.701 91.6257 287.229 91.6257C287.682 91.6257 288.004 91.4636 288.195 91.1394V86.6922H290.182V93.032H288.33L288.272 92.3465ZM297.154 89.9148C297.154 90.9539 296.94 91.7527 296.51 92.3113C296.08 92.8699 295.475 93.1492 294.693 93.1492C294.049 93.1492 293.529 92.8933 293.135 92.3816L293.053 93.032H291.283V84.032H293.258V87.2019C293.625 86.784 294.1 86.575 294.682 86.575C295.471 86.575 296.08 86.8582 296.51 87.4246C296.94 87.991 297.154 88.7879 297.154 89.8152V89.9148ZM295.174 89.7918C295.174 89.1824 295.092 88.7488 294.928 88.491C294.768 88.2293 294.52 88.0984 294.184 88.0984C293.738 88.0984 293.43 88.2683 293.258 88.6082V91.1277C293.426 91.4636 293.738 91.6316 294.195 91.6316C294.66 91.6316 294.955 91.405 295.08 90.9519C295.143 90.7293 295.174 90.3425 295.174 89.7918ZM298.121 93.032V84.5007H300.869C301.623 84.5007 302.301 84.6726 302.902 85.0164C303.504 85.3562 303.973 85.8386 304.309 86.4636C304.649 87.0847 304.82 87.782 304.824 88.5554V88.948C304.824 89.7293 304.658 90.4304 304.326 91.0515C303.998 91.6687 303.533 92.1531 302.932 92.5047C302.334 92.8523 301.666 93.0281 300.928 93.032H298.121ZM300.178 86.0886V91.45H300.893C301.483 91.45 301.936 91.241 302.252 90.823C302.568 90.4011 302.727 89.7761 302.727 88.948V88.5789C302.727 87.7547 302.568 87.1336 302.252 86.7156C301.936 86.2976 301.475 86.0886 300.869 86.0886H300.178ZM309.359 93.032C309.289 92.9031 309.227 92.7136 309.172 92.4636C308.809 92.9207 308.301 93.1492 307.649 93.1492C307.051 93.1492 306.543 92.9695 306.125 92.6101C305.707 92.2468 305.498 91.7918 305.498 91.2449C305.498 90.5574 305.752 90.0379 306.26 89.6863C306.768 89.3347 307.506 89.159 308.475 89.159H309.084V88.825C309.084 88.2429 308.832 87.9519 308.328 87.9519C307.859 87.9519 307.625 88.1824 307.625 88.6433H305.65C305.65 88.03 305.91 87.532 306.43 87.1492C306.953 86.7664 307.619 86.575 308.428 86.575C309.236 86.575 309.875 86.7722 310.344 87.1668C310.813 87.5613 311.053 88.1023 311.065 88.7898V91.5965C311.072 92.1785 311.162 92.6238 311.334 92.9324V93.032H309.359ZM308.123 91.7429C308.369 91.7429 308.572 91.6902 308.733 91.5847C308.897 91.4793 309.014 91.3601 309.084 91.2273V90.2136H308.51C307.822 90.2136 307.479 90.5222 307.479 91.1394C307.479 91.3191 307.539 91.4656 307.66 91.5789C307.781 91.6882 307.936 91.7429 308.123 91.7429ZM314.463 85.116V86.6922H315.506V88.0632H314.463V90.9636C314.463 91.2019 314.506 91.3679 314.592 91.4617C314.678 91.5554 314.848 91.6023 315.102 91.6023C315.297 91.6023 315.461 91.5906 315.594 91.5672V92.9793C315.238 93.0925 314.867 93.1492 314.481 93.1492C313.801 93.1492 313.299 92.989 312.975 92.6687C312.65 92.3484 312.488 91.8621 312.488 91.2097V88.0632H311.68V86.6922H312.488V85.116H314.463ZM319.356 93.1492C318.383 93.1492 317.596 92.8601 316.994 92.282C316.393 91.7 316.092 90.9441 316.092 90.0144V89.8504C316.092 89.2019 316.211 88.6297 316.449 88.1336C316.692 87.6375 317.043 87.2547 317.504 86.9851C317.965 86.7117 318.512 86.575 319.145 86.575C320.035 86.575 320.738 86.8523 321.254 87.407C321.77 87.9578 322.027 88.7273 322.027 89.7156V90.4832H318.102C318.172 90.8386 318.326 91.1179 318.565 91.3211C318.803 91.5242 319.111 91.6257 319.49 91.6257C320.115 91.6257 320.604 91.407 320.955 90.9695L321.858 92.0359C321.611 92.3757 321.262 92.6472 320.809 92.8504C320.359 93.0496 319.875 93.1492 319.356 93.1492ZM319.133 88.0984C318.555 88.0984 318.211 88.4812 318.102 89.2468H320.094V89.0945C320.102 88.7781 320.022 88.534 319.854 88.3621C319.686 88.1863 319.445 88.0984 319.133 88.0984Z" fill="black"/>
<path d="M128.838 201.751V203.327H129.881V204.698H128.838V207.599C128.838 207.837 128.881 208.003 128.967 208.097C129.053 208.191 129.223 208.237 129.477 208.237C129.672 208.237 129.836 208.226 129.969 208.202V209.614C129.613 209.728 129.242 209.784 128.856 209.784C128.176 209.784 127.674 209.624 127.35 209.304C127.025 208.984 126.863 208.497 126.863 207.845V204.698H126.055V203.327H126.863V201.751H128.838ZM132.746 209.667H130.766V203.327H132.746V209.667ZM130.649 201.693C130.649 201.411 130.75 201.181 130.953 201.001C131.156 200.821 131.42 200.732 131.744 200.732C132.068 200.732 132.332 200.821 132.535 201.001C132.738 201.181 132.84 201.411 132.84 201.693C132.84 201.974 132.738 202.204 132.535 202.384C132.332 202.564 132.068 202.653 131.744 202.653C131.42 202.653 131.156 202.564 130.953 202.384C130.75 202.204 130.649 201.974 130.649 201.693ZM136.268 201.751V203.327H137.311V204.698H136.268V207.599C136.268 207.837 136.311 208.003 136.397 208.097C136.483 208.191 136.652 208.237 136.906 208.237C137.102 208.237 137.266 208.226 137.399 208.202V209.614C137.043 209.728 136.672 209.784 136.285 209.784C135.606 209.784 135.104 209.624 134.779 209.304C134.455 208.984 134.293 208.497 134.293 207.845V204.698H133.484V203.327H134.293V201.751H136.268ZM140.176 209.667H138.195V200.667H140.176V209.667ZM144.465 209.784C143.492 209.784 142.705 209.495 142.104 208.917C141.502 208.335 141.201 207.579 141.201 206.65V206.486C141.201 205.837 141.32 205.265 141.559 204.769C141.801 204.273 142.152 203.89 142.613 203.62C143.074 203.347 143.621 203.21 144.254 203.21C145.145 203.21 145.848 203.487 146.363 204.042C146.879 204.593 147.137 205.362 147.137 206.351V207.118H143.211C143.281 207.474 143.436 207.753 143.674 207.956C143.912 208.159 144.221 208.261 144.6 208.261C145.225 208.261 145.713 208.042 146.065 207.605L146.967 208.671C146.721 209.011 146.371 209.282 145.918 209.486C145.469 209.685 144.984 209.784 144.465 209.784ZM144.242 204.734C143.664 204.734 143.32 205.116 143.211 205.882H145.203V205.73C145.211 205.413 145.131 205.169 144.963 204.997C144.795 204.821 144.555 204.734 144.242 204.734ZM148.631 211.964L147.635 211.495L147.834 211.097C148.108 210.589 148.25 210.105 148.262 209.644V208.179H149.844L149.838 209.45C149.834 209.9 149.719 210.357 149.492 210.821C149.266 211.286 148.979 211.667 148.631 211.964ZM156.242 209.667H154.262V200.667H156.242V209.667ZM159.547 209.667H157.567V203.327H159.547V209.667ZM157.449 201.693C157.449 201.411 157.551 201.181 157.754 201.001C157.957 200.821 158.221 200.732 158.545 200.732C158.869 200.732 159.133 200.821 159.336 201.001C159.539 201.181 159.641 201.411 159.641 201.693C159.641 201.974 159.539 202.204 159.336 202.384C159.133 202.564 158.869 202.653 158.545 202.653C158.221 202.653 157.957 202.564 157.754 202.384C157.551 202.204 157.449 201.974 157.449 201.693ZM162.582 203.327L162.647 204.071C163.084 203.497 163.688 203.21 164.457 203.21C165.117 203.21 165.609 203.407 165.934 203.802C166.262 204.196 166.432 204.79 166.443 205.583V209.667H164.463V205.665C164.463 205.345 164.399 205.111 164.27 204.962C164.141 204.81 163.906 204.734 163.567 204.734C163.18 204.734 162.893 204.886 162.705 205.191V209.667H160.731V203.327H162.582ZM170.088 207.306L169.531 207.862V209.667H167.557V200.661H169.531V205.443L169.731 205.179L171.219 203.327H173.586L171.365 205.935L173.733 209.667H171.471L170.088 207.306ZM174.799 211.964L173.803 211.495L174.002 211.097C174.275 210.589 174.418 210.105 174.43 209.644V208.179H176.012L176.006 209.45C176.002 209.9 175.887 210.357 175.66 210.821C175.434 211.286 175.147 211.667 174.799 211.964ZM180.096 206.45C180.096 205.81 180.201 205.243 180.412 204.751C180.623 204.259 180.926 203.88 181.32 203.614C181.715 203.345 182.174 203.21 182.697 203.21C183.358 203.21 183.873 203.433 184.244 203.878L184.315 203.327H186.108V209.427C186.108 209.986 185.977 210.47 185.715 210.88C185.457 211.294 185.082 211.611 184.59 211.829C184.098 212.052 183.527 212.163 182.879 212.163C182.414 212.163 181.963 212.075 181.525 211.9C181.092 211.724 180.76 211.495 180.529 211.214L181.356 210.054C181.723 210.487 182.207 210.704 182.809 210.704C183.684 210.704 184.121 210.255 184.121 209.357V209.157C183.742 209.575 183.264 209.784 182.686 209.784C181.912 209.784 181.287 209.489 180.811 208.9C180.334 208.306 180.096 207.513 180.096 206.521V206.45ZM182.076 206.573C182.076 207.093 182.174 207.505 182.369 207.81C182.565 208.111 182.838 208.261 183.19 208.261C183.615 208.261 183.926 208.118 184.121 207.833V205.167C183.93 204.878 183.623 204.734 183.201 204.734C182.85 204.734 182.574 204.892 182.375 205.208C182.176 205.521 182.076 205.976 182.076 206.573ZM191.006 208.982C190.588 209.517 190.024 209.784 189.313 209.784C188.617 209.784 188.09 209.583 187.731 209.181C187.375 208.775 187.197 208.193 187.197 207.435V203.327H189.172V207.446C189.172 207.989 189.436 208.261 189.963 208.261C190.416 208.261 190.738 208.099 190.93 207.775V203.327H192.916V209.667H191.065L191.006 208.982ZM196.086 209.667H194.106V203.327H196.086V209.667ZM193.988 201.693C193.988 201.411 194.09 201.181 194.293 201.001C194.496 200.821 194.76 200.732 195.084 200.732C195.408 200.732 195.672 200.821 195.875 201.001C196.078 201.181 196.18 201.411 196.18 201.693C196.18 201.974 196.078 202.204 195.875 202.384C195.672 202.564 195.408 202.653 195.084 202.653C194.76 202.653 194.496 202.564 194.293 202.384C194.09 202.204 193.988 201.974 193.988 201.693ZM197.059 206.45C197.059 205.446 197.275 204.655 197.709 204.077C198.143 203.499 198.748 203.21 199.525 203.21C200.092 203.21 200.568 203.433 200.955 203.878V200.667H202.936V209.667H201.16L201.061 208.987C200.654 209.519 200.139 209.784 199.514 209.784C198.76 209.784 198.162 209.495 197.721 208.917C197.279 208.339 197.059 207.517 197.059 206.45ZM199.033 206.573C199.033 207.698 199.361 208.261 200.018 208.261C200.455 208.261 200.768 208.077 200.955 207.71V205.296C200.775 204.921 200.467 204.734 200.029 204.734C199.42 204.734 199.09 205.226 199.039 206.21L199.033 206.573ZM204.752 211.964L203.756 211.495L203.955 211.097C204.229 210.589 204.371 210.105 204.383 209.644V208.179H205.965L205.959 209.45C205.955 209.9 205.84 210.357 205.613 210.821C205.387 211.286 205.1 211.667 204.752 211.964ZM210.031 206.45C210.031 205.446 210.248 204.655 210.682 204.077C211.115 203.499 211.721 203.21 212.498 203.21C213.065 203.21 213.541 203.433 213.928 203.878V200.667H215.908V209.667H214.133L214.033 208.987C213.627 209.519 213.111 209.784 212.486 209.784C211.733 209.784 211.135 209.495 210.693 208.917C210.252 208.339 210.031 207.517 210.031 206.45ZM212.006 206.573C212.006 207.698 212.334 208.261 212.99 208.261C213.428 208.261 213.74 208.077 213.928 207.71V205.296C213.748 204.921 213.44 204.734 213.002 204.734C212.393 204.734 212.063 205.226 212.012 206.21L212.006 206.573ZM220.098 209.784C219.125 209.784 218.338 209.495 217.736 208.917C217.135 208.335 216.834 207.579 216.834 206.65V206.486C216.834 205.837 216.953 205.265 217.192 204.769C217.434 204.273 217.785 203.89 218.246 203.62C218.707 203.347 219.254 203.21 219.887 203.21C220.777 203.21 221.481 203.487 221.996 204.042C222.512 204.593 222.77 205.362 222.77 206.351V207.118H218.844C218.914 207.474 219.068 207.753 219.307 207.956C219.545 208.159 219.854 208.261 220.233 208.261C220.858 208.261 221.346 208.042 221.697 207.605L222.6 208.671C222.354 209.011 222.004 209.282 221.551 209.486C221.102 209.685 220.617 209.784 220.098 209.784ZM219.875 204.734C219.297 204.734 218.953 205.116 218.844 205.882H220.836V205.73C220.844 205.413 220.764 205.169 220.596 204.997C220.428 204.821 220.188 204.734 219.875 204.734ZM226.889 207.886C226.889 207.718 226.801 207.583 226.625 207.482C226.449 207.38 226.115 207.275 225.623 207.165C225.131 207.056 224.725 206.913 224.404 206.737C224.084 206.558 223.84 206.341 223.672 206.087C223.504 205.833 223.42 205.542 223.42 205.214C223.42 204.632 223.66 204.153 224.141 203.778C224.621 203.4 225.25 203.21 226.027 203.21C226.863 203.21 227.535 203.4 228.043 203.778C228.551 204.157 228.805 204.655 228.805 205.273H226.824C226.824 204.765 226.557 204.511 226.022 204.511C225.815 204.511 225.641 204.57 225.5 204.687C225.359 204.8 225.289 204.943 225.289 205.114C225.289 205.29 225.375 205.433 225.547 205.542C225.719 205.652 225.992 205.741 226.367 205.812C226.746 205.882 227.078 205.966 227.363 206.064C228.317 206.392 228.793 206.98 228.793 207.827C228.793 208.405 228.535 208.876 228.02 209.239C227.508 209.603 226.844 209.784 226.027 209.784C225.484 209.784 225 209.687 224.574 209.491C224.149 209.296 223.817 209.03 223.578 208.695C223.34 208.359 223.221 208.005 223.221 207.634H225.067C225.074 207.927 225.172 208.142 225.359 208.278C225.547 208.411 225.787 208.478 226.08 208.478C226.35 208.478 226.551 208.423 226.684 208.314C226.82 208.204 226.889 208.062 226.889 207.886ZM232.402 208.261C232.68 208.261 232.895 208.187 233.047 208.038C233.199 207.886 233.274 207.675 233.27 207.405H235.121C235.121 208.101 234.871 208.671 234.371 209.116C233.875 209.562 233.234 209.784 232.449 209.784C231.527 209.784 230.801 209.495 230.27 208.917C229.738 208.339 229.473 207.538 229.473 206.515V206.433C229.473 205.792 229.59 205.228 229.824 204.739C230.063 204.247 230.404 203.87 230.85 203.609C231.295 203.343 231.822 203.21 232.432 203.21C233.256 203.21 233.91 203.439 234.395 203.896C234.879 204.353 235.121 204.972 235.121 205.753H233.27C233.27 205.425 233.19 205.173 233.029 204.997C232.869 204.821 232.654 204.734 232.385 204.734C231.873 204.734 231.574 205.06 231.488 205.712C231.461 205.919 231.447 206.204 231.447 206.568C231.447 207.204 231.524 207.646 231.676 207.892C231.828 208.138 232.07 208.261 232.402 208.261ZM239.791 205.114L239.141 205.068C238.52 205.068 238.121 205.263 237.945 205.653V209.667H235.971V203.327H237.822L237.887 204.142C238.219 203.521 238.682 203.21 239.275 203.21C239.486 203.21 239.67 203.234 239.826 203.28L239.791 205.114ZM242.586 209.667H240.606V203.327H242.586V209.667ZM240.488 201.693C240.488 201.411 240.59 201.181 240.793 201.001C240.996 200.821 241.26 200.732 241.584 200.732C241.908 200.732 242.172 200.821 242.375 201.001C242.578 201.181 242.68 201.411 242.68 201.693C242.68 201.974 242.578 202.204 242.375 202.384C242.172 202.564 241.908 202.653 241.584 202.653C241.26 202.653 240.996 202.564 240.793 202.384C240.59 202.204 240.488 201.974 240.488 201.693ZM249.693 206.544C249.693 207.528 249.471 208.316 249.025 208.905C248.584 209.491 247.986 209.784 247.233 209.784C246.65 209.784 246.172 209.571 245.797 209.146V212.105H243.822V203.327H245.668L245.727 203.913C246.106 203.445 246.604 203.21 247.221 203.21C248.002 203.21 248.609 203.499 249.043 204.077C249.477 204.652 249.693 205.443 249.693 206.45V206.544ZM247.719 206.421C247.719 205.296 247.391 204.734 246.734 204.734C246.266 204.734 245.953 204.902 245.797 205.237V207.734C245.969 208.085 246.285 208.261 246.746 208.261C247.375 208.261 247.699 207.718 247.719 206.632V206.421ZM252.869 201.751V203.327H253.912V204.698H252.869V207.599C252.869 207.837 252.912 208.003 252.998 208.097C253.084 208.191 253.254 208.237 253.508 208.237C253.703 208.237 253.867 208.226 254 208.202V209.614C253.645 209.728 253.274 209.784 252.887 209.784C252.207 209.784 251.705 209.624 251.381 209.304C251.057 208.984 250.895 208.497 250.895 207.845V204.698H250.086V203.327H250.895V201.751H252.869ZM256.777 209.667H254.797V203.327H256.777V209.667ZM254.68 201.693C254.68 201.411 254.781 201.181 254.984 201.001C255.188 200.821 255.451 200.732 255.775 200.732C256.1 200.732 256.363 200.821 256.567 201.001C256.77 201.181 256.871 201.411 256.871 201.693C256.871 201.974 256.77 202.204 256.567 202.384C256.363 202.564 256.1 202.653 255.775 202.653C255.451 202.653 255.188 202.564 254.984 202.384C254.781 202.204 254.68 201.974 254.68 201.693ZM257.75 206.439C257.75 205.806 257.873 205.243 258.119 204.751C258.365 204.255 258.719 203.874 259.18 203.609C259.641 203.343 260.182 203.21 260.803 203.21C261.752 203.21 262.5 203.505 263.047 204.095C263.594 204.681 263.867 205.48 263.867 206.491V206.562C263.867 207.55 263.592 208.335 263.041 208.917C262.494 209.495 261.752 209.784 260.815 209.784C259.912 209.784 259.188 209.515 258.641 208.976C258.094 208.433 257.799 207.698 257.756 206.773L257.75 206.439ZM259.725 206.562C259.725 207.148 259.817 207.577 260 207.851C260.184 208.124 260.455 208.261 260.815 208.261C261.518 208.261 261.877 207.72 261.893 206.638V206.439C261.893 205.302 261.529 204.734 260.803 204.734C260.143 204.734 259.785 205.224 259.731 206.204L259.725 206.562ZM266.551 203.327L266.615 204.071C267.053 203.497 267.656 203.21 268.426 203.21C269.086 203.21 269.578 203.407 269.902 203.802C270.231 204.196 270.4 204.79 270.412 205.583V209.667H268.432V205.665C268.432 205.345 268.367 205.111 268.238 204.962C268.109 204.81 267.875 204.734 267.535 204.734C267.149 204.734 266.861 204.886 266.674 205.191V209.667H264.699V203.327H266.551ZM272.205 211.964L271.209 211.495L271.408 211.097C271.682 210.589 271.824 210.105 271.836 209.644V208.179H273.418L273.412 209.45C273.408 209.9 273.293 210.357 273.067 210.821C272.84 211.286 272.553 211.667 272.205 211.964ZM283.619 206.544C283.619 207.528 283.397 208.316 282.951 208.905C282.51 209.491 281.912 209.784 281.158 209.784C280.576 209.784 280.098 209.571 279.723 209.146V212.105H277.748V203.327H279.594L279.652 203.913C280.031 203.445 280.529 203.21 281.147 203.21C281.928 203.21 282.535 203.499 282.969 204.077C283.402 204.652 283.619 205.443 283.619 206.45V206.544ZM281.645 206.421C281.645 205.296 281.317 204.734 280.66 204.734C280.192 204.734 279.879 204.902 279.723 205.237V207.734C279.895 208.085 280.211 208.261 280.672 208.261C281.301 208.261 281.625 207.718 281.645 206.632V206.421ZM288.272 208.982C287.854 209.517 287.289 209.784 286.578 209.784C285.883 209.784 285.356 209.583 284.996 209.181C284.641 208.775 284.463 208.193 284.463 207.435V203.327H286.438V207.446C286.438 207.989 286.701 208.261 287.229 208.261C287.682 208.261 288.004 208.099 288.195 207.775V203.327H290.182V209.667H288.33L288.272 208.982ZM297.154 206.55C297.154 207.589 296.94 208.388 296.51 208.946C296.08 209.505 295.475 209.784 294.693 209.784C294.049 209.784 293.529 209.528 293.135 209.017L293.053 209.667H291.283V200.667H293.258V203.837C293.625 203.419 294.1 203.21 294.682 203.21C295.471 203.21 296.08 203.493 296.51 204.06C296.94 204.626 297.154 205.423 297.154 206.45V206.55ZM295.174 206.427C295.174 205.818 295.092 205.384 294.928 205.126C294.768 204.864 294.52 204.734 294.184 204.734C293.738 204.734 293.43 204.903 293.258 205.243V207.763C293.426 208.099 293.738 208.267 294.195 208.267C294.66 208.267 294.955 208.04 295.08 207.587C295.143 207.364 295.174 206.978 295.174 206.427ZM298.121 209.667V201.136H300.869C301.623 201.136 302.301 201.308 302.902 201.652C303.504 201.991 303.973 202.474 304.309 203.099C304.649 203.72 304.82 204.417 304.824 205.191V205.583C304.824 206.364 304.658 207.066 304.326 207.687C303.998 208.304 303.533 208.788 302.932 209.14C302.334 209.487 301.666 209.663 300.928 209.667H298.121ZM300.178 202.724V208.085H300.893C301.483 208.085 301.936 207.876 302.252 207.458C302.568 207.036 302.727 206.411 302.727 205.583V205.214C302.727 204.39 302.568 203.769 302.252 203.351C301.936 202.933 301.475 202.724 300.869 202.724H300.178ZM309.359 209.667C309.289 209.538 309.227 209.349 309.172 209.099C308.809 209.556 308.301 209.784 307.649 209.784C307.051 209.784 306.543 209.605 306.125 209.245C305.707 208.882 305.498 208.427 305.498 207.88C305.498 207.193 305.752 206.673 306.26 206.321C306.768 205.97 307.506 205.794 308.475 205.794H309.084V205.46C309.084 204.878 308.832 204.587 308.328 204.587C307.859 204.587 307.625 204.818 307.625 205.278H305.65C305.65 204.665 305.91 204.167 306.43 203.784C306.953 203.402 307.619 203.21 308.428 203.21C309.236 203.21 309.875 203.407 310.344 203.802C310.813 204.196 311.053 204.737 311.065 205.425V208.232C311.072 208.814 311.162 209.259 311.334 209.568V209.667H309.359ZM308.123 208.378C308.369 208.378 308.572 208.325 308.733 208.22C308.897 208.114 309.014 207.995 309.084 207.862V206.849H308.51C307.822 206.849 307.479 207.157 307.479 207.775C307.479 207.954 307.539 208.101 307.66 208.214C307.781 208.323 307.936 208.378 308.123 208.378ZM314.463 201.751V203.327H315.506V204.698H314.463V207.599C314.463 207.837 314.506 208.003 314.592 208.097C314.678 208.191 314.848 208.237 315.102 208.237C315.297 208.237 315.461 208.226 315.594 208.202V209.614C315.238 209.728 314.867 209.784 314.481 209.784C313.801 209.784 313.299 209.624 312.975 209.304C312.65 208.984 312.488 208.497 312.488 207.845V204.698H311.68V203.327H312.488V201.751H314.463ZM319.356 209.784C318.383 209.784 317.596 209.495 316.994 208.917C316.393 208.335 316.092 207.579 316.092 206.65V206.486C316.092 205.837 316.211 205.265 316.449 204.769C316.692 204.273 317.043 203.89 317.504 203.62C317.965 203.347 318.512 203.21 319.145 203.21C320.035 203.21 320.738 203.487 321.254 204.042C321.77 204.593 322.027 205.362 322.027 206.351V207.118H318.102C318.172 207.474 318.326 207.753 318.565 207.956C318.803 208.159 319.111 208.261 319.49 208.261C320.115 208.261 320.604 208.042 320.955 207.605L321.858 208.671C321.611 209.011 321.262 209.282 320.809 209.486C320.359 209.685 319.875 209.784 319.356 209.784ZM319.133 204.734C318.555 204.734 318.211 205.116 318.102 205.882H320.094V205.73C320.102 205.413 320.022 205.169 319.854 204.997C319.686 204.821 319.445 204.734 319.133 204.734Z" fill="black"/>
</svg>
